<svg width="212" height="34" viewBox="0 0 212 34" fill="none" xmlns="http://www.w3.org/2000/svg">
<g clip-path="url(#clip0_102:55)">
<path d="M40.8928 19.8231H41.9051V32.9724H49.8867V33.8969H40.8967L40.8928 19.8231Z" fill="#16C79A"/>
<path d="M62.0663 29.937H54.0261L52.2633 33.9048H51.1727L57.5517 19.831H58.5797L64.9587 33.9048H63.8682L62.0663 29.937ZM61.6754 29.072L58.0442 20.9698L54.4209 29.0918L61.6754 29.072Z" fill="#16C79A"/>
<path d="M78.0685 33.8968L74.7618 29.195C74.3216 29.2606 73.8777 29.2964 73.4328 29.3021H69.4538V33.9048H68.4453V19.831H73.4328C75.1761 19.831 76.5428 20.2503 77.533 21.0888C78.0281 21.5151 78.4197 22.0515 78.6773 22.6564C78.9349 23.2613 79.0516 23.9184 79.0183 24.5765C79.0531 25.5804 78.7574 26.5674 78.178 27.3817C77.5691 28.165 76.7228 28.7228 75.7702 28.9688L79.2372 33.8929L78.0685 33.8968ZM73.4328 28.3895C74.9142 28.3895 76.0399 28.0602 76.8217 27.3936C77.2164 27.0447 77.5273 26.6087 77.7305 26.1191C77.9338 25.6294 78.024 25.0991 77.9943 24.5686C78.0234 24.0381 77.9329 23.508 77.7297 23.0184C77.5265 22.5288 77.216 22.0928 76.8217 21.7435C76.0399 21.0809 74.9142 20.7516 73.4328 20.7516H69.4538V28.3895H73.4328Z" fill="#16C79A"/>
<path d="M87.7738 29.0522V33.8969H86.7653V29.0522L81.1798 19.8231H82.286L87.2969 28.1118L92.3079 19.8271H93.3671L87.7738 29.0522Z" fill="#16C79A"/>
<path d="M107.829 19.8231V33.8969H106.997L97.5492 21.6761V33.8969H96.5408V19.8231H97.3929L106.821 32.0479V19.8231H107.829Z" fill="#16C79A"/>
<path d="M123.542 26.9215H124.515V32.1907C123.883 32.7945 123.13 33.2532 122.307 33.5358C121.428 33.847 120.502 34.004 119.571 34.0001C118.276 34.0189 116.997 33.7006 115.858 33.0756C114.778 32.4815 113.88 31.5975 113.262 30.5203C112.629 29.4095 112.303 28.1454 112.32 26.862C112.303 25.5786 112.629 24.3145 113.262 23.2037C113.88 22.1265 114.778 21.2425 115.858 20.6484C117.004 20.0216 118.289 19.7033 119.591 19.7239C120.546 19.7145 121.496 19.8812 122.393 20.216C123.218 20.5269 123.965 21.0187 124.582 21.6563L123.949 22.3387C123.4 21.7697 122.732 21.3331 121.994 21.0611C121.227 20.7898 120.419 20.6556 119.606 20.6643C118.485 20.6449 117.377 20.9181 116.389 21.4579C115.452 21.9732 114.674 22.7424 114.142 23.6798C113.593 24.6439 113.312 25.7409 113.329 26.8541C113.316 27.9591 113.6 29.0468 114.15 30.0005C114.687 30.9359 115.464 31.7063 116.397 32.2304C117.378 32.7825 118.485 33.0643 119.606 33.0478C121.028 33.1029 122.424 32.6462 123.546 31.7583L123.542 26.9215Z" fill="#16C79A"/>
<path d="M132.141 33.0637C131.066 32.4629 130.172 31.577 129.554 30.5005C128.923 29.3958 128.599 28.1386 128.616 26.862C128.599 25.5855 128.923 24.3281 129.554 23.2236C130.172 22.1471 131.066 21.2612 132.141 20.6604C133.268 20.0285 134.537 19.7058 135.823 19.724C137.11 19.7062 138.379 20.0245 139.509 20.6485C140.583 21.2464 141.476 22.1297 142.093 23.2037C142.726 24.3145 143.052 25.5786 143.035 26.862C143.052 28.1454 142.726 29.4096 142.093 30.5203C141.476 31.5943 140.583 32.4777 139.509 33.0756C138.379 33.6995 137.11 34.0179 135.823 34.0001C134.537 34.0183 133.268 33.6955 132.141 33.0637ZM138.974 32.2701C139.898 31.7478 140.664 30.9796 141.19 30.0482C141.739 29.0841 142.02 27.9871 142.003 26.8739C142.02 25.7607 141.739 24.6638 141.19 23.6997C140.664 22.7683 139.898 22.0001 138.974 21.4777C138.01 20.9393 136.924 20.6658 135.823 20.6842C134.721 20.6662 133.632 20.9397 132.665 21.4777C131.736 21.9973 130.965 22.7659 130.437 23.6997C129.889 24.6638 129.608 25.7607 129.624 26.8739C129.608 27.9871 129.889 29.0841 130.437 30.0482C130.965 30.9819 131.736 31.7505 132.665 32.2701C133.632 32.8082 134.721 33.0816 135.823 33.0637C136.925 33.076 138.011 32.7956 138.974 32.2503V32.2701Z" fill="#16C79A"/>
<path d="M147.53 19.8231H148.538V32.9724H156.52V33.8969H147.53V19.8231Z" fill="#16C79A"/>
<path d="M162.027 33.0636C160.953 32.4627 160.06 31.5768 159.444 30.5005C158.81 29.3968 158.485 28.1391 158.502 26.862C158.484 25.5848 158.81 24.327 159.444 23.2235C160.06 22.1472 160.953 21.2612 162.027 20.6603C163.154 20.0297 164.423 19.707 165.709 19.7239C166.996 19.7056 168.265 20.024 169.395 20.6484C170.47 21.2452 171.363 22.1288 171.979 23.2037C172.614 24.3137 172.94 25.5784 172.921 26.862C172.94 28.1456 172.614 29.4103 171.979 30.5203C171.363 31.5952 170.47 32.4788 169.395 33.0755C168.265 33.7 166.996 34.0184 165.709 34C164.423 34.0169 163.154 33.6943 162.027 33.0636ZM168.86 32.2701C169.784 31.7464 170.551 30.9786 171.08 30.0481C171.627 29.0834 171.908 27.9869 171.893 26.8739C171.908 25.7609 171.627 24.6644 171.08 23.6997C170.551 22.7692 169.784 22.0014 168.86 21.4777C167.896 20.9388 166.81 20.6652 165.709 20.6841C164.607 20.6666 163.518 20.94 162.551 21.4777C161.624 22.0002 160.854 22.7681 160.323 23.6997C159.776 24.6644 159.495 25.7609 159.51 26.8739C159.495 27.9869 159.776 29.0834 160.323 30.0481C160.854 30.9796 161.624 31.7475 162.551 32.2701C163.518 32.8078 164.607 33.0812 165.709 33.0636C166.811 33.0765 167.898 32.7961 168.86 32.2502V32.2701Z" fill="#16C79A"/>
<path d="M187.32 26.9216H188.29V32.1908C187.658 32.7954 186.904 33.2542 186.081 33.5359C185.202 33.8475 184.277 34.0045 183.345 34.0001C182.05 34.019 180.772 33.7007 179.632 33.0756C178.553 32.4804 177.656 31.5967 177.037 30.5204C176.404 29.4093 176.08 28.1451 176.098 26.8621C176.08 25.579 176.404 24.3149 177.037 23.2038C177.656 22.1274 178.553 21.2437 179.632 20.6485C180.778 20.0221 182.063 19.7039 183.365 19.724C184.321 19.7142 185.27 19.8809 186.167 20.216C186.992 20.527 187.74 21.0188 188.356 21.6563L187.723 22.3388C187.174 21.7698 186.506 21.3332 185.769 21.0612C185.001 20.7899 184.193 20.6556 183.38 20.6644C182.259 20.645 181.151 20.9182 180.164 21.4579C179.226 21.9733 178.448 22.7425 177.916 23.6799C177.368 24.644 177.087 25.7409 177.103 26.8541C177.09 27.9591 177.374 29.0469 177.924 30.0006C178.463 30.9361 179.241 31.7065 180.175 32.2305C181.155 32.7826 182.26 33.0645 183.38 33.0479C184.804 33.1029 186.2 32.6462 187.324 31.7583L187.32 26.9216Z" fill="#16C79A"/>
<path d="M193.715 19.8231H194.727V33.8969H193.715V19.8231Z" fill="#16C79A"/>
<path d="M209.127 29.937H201.083L199.324 33.9048H198.233L204.609 19.831H205.621L212 33.9048H210.909L209.127 29.937ZM208.736 29.072L205.105 20.9698L201.482 29.0918L208.736 29.072Z" fill="#16C79A"/>
<path d="M40.2908 0.218353H44.2308L48.2529 8.46342L52.2515 0.218353H56.1953V14.3159H52.9863L52.9668 5.38838L49.4216 12.9073H47.0763L43.5116 5.38838V14.3159H40.283L40.2908 0.218353Z" fill="#16C79A"/>
<path d="M59.8774 0.218353H70.8217V3.15452H63.5047V5.78912H70.1182V8.70545L63.5047 8.7253V11.3797H71.0289V14.3159H59.8774V0.218353Z" fill="#16C79A"/>
<path d="M84.0721 1.10317C85.1539 1.66433 86.0566 2.52565 86.6753 3.58701C87.3086 4.70169 87.6302 5.97068 87.6055 7.25722C87.6289 8.54714 87.3045 9.819 86.6674 10.9354C86.0384 12.0097 85.1167 12.8764 84.0134 13.4311C82.789 14.0385 81.4399 14.3418 80.0774 14.3159H74.2378V0.218361H80.2181C81.5544 0.192412 82.8769 0.496032 84.0721 1.10317ZM82.1803 10.8362C82.7285 10.493 83.1681 9.99722 83.4467 9.40775C83.7606 8.75046 83.9173 8.02724 83.904 7.2969C83.9178 6.55698 83.7513 5.82505 83.4193 5.1662C83.1138 4.57068 82.6509 4.0733 82.0826 3.72985C81.4898 3.37986 80.8138 3.20146 80.1282 3.21404H77.8494V11.3401H80.308C80.9662 11.3533 81.6149 11.1787 82.1803 10.8362Z" fill="#16C79A"/>
<path d="M90.4005 0.218353H94.0239V14.3159H90.4005V0.218353Z" fill="#16C79A"/>
<path d="M106.145 3.62644C105.585 3.30294 104.955 3.12695 104.312 3.11459C103.638 3.10785 102.976 3.29198 102.4 3.64627C101.826 4.00211 101.357 4.50948 101.044 5.11436C100.708 5.75508 100.537 6.47169 100.548 7.19745C100.538 7.92189 100.708 8.63709 101.044 9.27657C101.356 9.88226 101.825 10.3899 102.4 10.7447C102.975 11.1007 103.638 11.285 104.312 11.2763C104.93 11.2638 105.539 11.1134 106.094 10.8359C106.715 10.5448 107.28 10.1415 107.759 9.64557L109.878 11.9588C109.113 12.7689 108.201 13.421 107.192 13.8792C106.227 14.3358 105.177 14.5779 104.112 14.5894C102.81 14.6078 101.526 14.2751 100.391 13.6253C99.301 13.0031 98.3973 12.0926 97.7762 10.9907C97.1349 9.85371 96.8056 8.56302 96.8225 7.25299C96.8046 5.95279 97.1415 4.6729 97.7958 3.55501C98.4352 2.46132 99.3552 1.56444 100.458 0.960081C101.622 0.321094 102.929 -0.00403992 104.253 0.0157444C105.302 0.0208399 106.339 0.242215 107.302 0.666456C108.266 1.07522 109.136 1.68176 109.858 2.448L107.759 5.01912C107.321 4.44702 106.772 3.97289 106.145 3.62644Z" fill="#16C79A"/>
<path d="M122.444 14.3159L121.51 11.8202H115.494L114.525 14.3159H110.8L116.761 0.218353H120.486L126.309 14.3159H122.444ZM116.581 9.00701H120.423L118.519 3.97981L116.581 9.00701Z" fill="#16C79A"/>
<path d="M128.545 0.218353H132.169V11.1774H138.051V14.3159H128.545V0.218353Z" fill="#16C79A"/>
<path fill-rule="evenodd" clip-rule="evenodd" d="M9.25977 30.4051C10.2917 27.5245 11.7105 24.9375 13.9502 22.9298C16.4948 20.6324 18.2928 20.4579 20.9468 19.1525C24.6131 17.355 26.7199 14.1253 27.9355 10.1575L28.6665 10.8994C29.0964 11.3306 29.5238 11.7657 29.9485 12.2049L30.2221 12.4786L30.7342 12.9905C29.6983 15.8751 28.2834 18.4581 26.0437 20.4658C23.4952 22.7631 21.7012 22.9417 19.0432 24.2431C15.3808 26.0405 13.274 29.2703 12.0584 33.2381L11.3275 32.5001L10.0376 31.1828L9.7718 30.917C9.60373 30.7424 9.43565 30.5718 9.26367 30.4011L9.25977 30.4051Z" fill="#16C79A"/>
<path fill-rule="evenodd" clip-rule="evenodd" d="M4.63953 25.7034C5.67142 22.8227 7.09028 20.2357 9.32997 18.228C11.8745 15.9347 13.6725 15.7561 16.3304 14.4507C19.9929 12.6533 22.0997 9.42351 23.3153 5.45572L24.0462 6.19769C24.4762 6.63018 24.9022 7.07061 25.3283 7.5031L25.6019 7.77688L26.1139 8.28873C25.082 11.1733 23.6632 13.7603 21.4235 15.764C18.8789 18.0614 17.0809 18.2399 14.4269 19.5414C10.7605 21.3388 8.65376 24.5686 7.43816 28.5364L6.70723 27.7983L5.41736 26.485L5.15156 26.2152L4.63953 25.6994V25.7034Z" fill="#16C79A"/>
<path fill-rule="evenodd" clip-rule="evenodd" d="M0 21.0055C1.0319 18.121 2.44685 15.534 4.69044 13.5263C7.23891 11.2329 9.033 11.0543 11.6909 9.74892C15.3534 7.95151 17.4602 4.72173 18.6758 0.753937L19.4067 1.49592C19.8366 1.92841 20.2627 2.36883 20.6927 2.80529L20.9623 3.0751L21.4705 3.58695C20.4386 6.47153 19.0197 9.05853 16.78 11.0623C14.2355 13.3596 12.4375 13.5382 9.78347 14.8396C6.11711 16.637 4.01032 19.8668 2.79472 23.8346L2.06379 23.0966L0.773921 21.7832C0.687929 21.692 0.598026 21.6047 0.508126 21.5134L0 21.0016V21.0055Z" fill="#16C79A"/>
</g>
<defs>
<clipPath id="clip0_102:55">
<rect width="212" height="34" fill="white"/>
</clipPath>
</defs>
</svg>
